<?xml version="1.0" encoding="UTF-8" standalone="no"?>
<!DOCTYPE svg PUBLIC "-//W3C//DTD SVG 1.1//EN" "http://www.w3.org/Graphics/SVG/1.1/DTD/svg11.dtd">
<svg width="100%" height="100%" viewBox="0 0 3508 3508" version="1.1" xmlns="http://www.w3.org/2000/svg" xmlns:xlink="http://www.w3.org/1999/xlink" xml:space="preserve" xmlns:serif="http://www.serif.com/" style="fill-rule:evenodd;clip-rule:evenodd;stroke-linejoin:round;stroke-miterlimit:2;">
    <g transform="matrix(40.987701,0,0,47.017293,-1066.181752,-723.213702)">
        <path d="M73,19.923L73,34.077C73,36.242 70.984,38 68.5,38C66.016,38 64,36.242 64,34.077L64,19.923C64,17.758 66.016,16 68.5,16C70.984,16 73,17.758 73,19.923Z" style="fill:rgb(255,134,82);"/>
    </g>
    <g transform="matrix(29.580315,28.930009,-31.91902,33.931797,1407.038703,-1975.472569)">
        <path d="M73,19.998L73,34.002C73,36.209 70.984,38 68.5,38C66.016,38 64,36.209 64,34.002L64,19.998C64,17.791 66.016,16 68.5,16C70.984,16 73,17.791 73,19.998Z" style="fill:rgb(255,134,82);"/>
    </g>
    <g transform="matrix(29.238983,29.28855,-31.868474,33.077201,819.147115,-352.119241)">
        <path d="M73,20.055L73,33.945C73,36.183 70.984,38 68.5,38C66.016,38 64,36.183 64,33.945L64,20.055C64,17.817 66.016,16 68.5,16C70.984,16 73,17.817 73,20.055Z" style="fill:rgb(255,134,82);"/>
    </g>
    <g transform="matrix(-40.986978,0.248248,-0.232396,-39.892632,4554.901946,4098.265856)">
        <path d="M73,20.623L73,33.377C73,35.928 70.984,38 68.5,38C66.016,38 64,35.928 64,33.377L64,20.623C64,18.072 66.016,16 68.5,16C70.984,16 73,18.072 73,20.623Z" style="fill:rgb(255,134,82);"/>
    </g>
    <g transform="matrix(-27.307354,-31.16698,34.160049,-31.117626,1985.168069,4522.127633)">
        <path d="M73,20.036L73,33.964C73,36.191 70.984,38 68.5,38C66.016,38 64,36.191 64,33.964L64,20.036C64,17.809 66.016,16 68.5,16C70.984,16 73,17.809 73,20.036Z" style="fill:rgb(255,134,82);"/>
    </g>
    <g transform="matrix(-29.582967,-33.764229,13.546438,-12.339941,2363.40733,3358.078607)">
        <path d="M73,27C73,33.071 70.988,38 68.511,38L68.489,38C66.012,38 64,33.071 64,27C64,20.929 66.012,16 68.489,16L68.511,16C70.988,16 73,20.929 73,27Z" style="fill:rgb(255,134,82);"/>
    </g>
    <g transform="matrix(-29.582967,-33.764229,13.546438,-12.339941,3408.593705,4455.148787)">
        <path d="M73,27C73,33.071 70.988,38 68.511,38L68.489,38C66.012,38 64,33.071 64,27C64,20.929 66.012,16 68.489,16L68.511,16C70.988,16 73,20.929 73,27Z" style="fill:rgb(255,134,82);"/>
    </g>
    <g transform="matrix(-29.582967,-33.764229,13.546438,-12.339941,4423.039305,5458.184379)">
        <path d="M73,27C73,33.071 70.988,38 68.511,38L68.489,38C66.012,38 64,33.071 64,27C64,20.929 66.012,16 68.489,16L68.511,16C70.988,16 73,20.929 73,27Z" style="fill:rgb(255,134,82);"/>
    </g>
    <g transform="matrix(-28.982321,-29.552586,32.605921,-33.245834,2047.144742,5568.348688)">
        <path d="M73,20.001L73,33.999C73,36.207 70.984,38 68.5,38C66.016,38 64,36.207 64,33.999L64,20.001C64,17.793 66.016,16 68.5,16C70.984,16 73,17.793 73,20.001Z" style="fill:rgb(255,134,82);"/>
    </g>
    <g transform="matrix(0.231081,-41.792485,46.110431,0.265075,1710.296113,4624.331086)">
        <path d="M73,20.079L73,33.921C73,36.172 70.984,38 68.5,38C66.016,38 64,36.172 64,33.921L64,20.079C64,17.828 66.016,16 68.5,16C70.984,16 73,17.828 73,20.079Z" style="fill:rgb(255,134,82);"/>
    </g>
    <g transform="matrix(-0.543775,-41.789472,43.312489,-0.585961,-625.339269,4646.686721)">
        <path d="M73,20.342L73,33.658C73,36.055 70.984,38 68.5,38C66.016,38 64,36.055 64,33.658L64,20.342C64,17.945 66.016,16 68.5,16C70.984,16 73,17.945 73,20.342Z" style="fill:rgb(255,134,82);"/>
    </g>
</svg>
